<?xml version="1.0" encoding="UTF-8" standalone="no"?>
<svg width="245px" height="63px" viewBox="0 0 245 63" version="1.1" xmlns="http://www.w3.org/2000/svg" xmlns:xlink="http://www.w3.org/1999/xlink" xmlns:sketch="http://www.bohemiancoding.com/sketch/ns">
    <!-- Generator: Sketch 3.3.3 (12081) - http://www.bohemiancoding.com/sketch -->
    <title>logo + iso</title>
    <desc>Created with Sketch.</desc>
    <defs>
        <linearGradient x1="100%" y1="0%" x2="35.1606091%" y2="76.255419%" id="linearGradient-1">
            <stop stop-color="#B1E65C" offset="0%"/>
            <stop stop-color="#90C33F" offset="100%"/>
        </linearGradient>
    </defs>
    <g id="Page-1" stroke="none" stroke-width="1" fill="none" fill-rule="evenodd" sketch:type="MSPage">
        <g id="Landing" sketch:type="MSArtboardGroup" transform="translate(-229.000000, -62.000000)">
            <g id="logo-+-iso" sketch:type="MSLayerGroup" transform="translate(229.000000, 62.000000)">
                <g id="logo" fill="url(#linearGradient-1)" sketch:type="MSShapeGroup">
                    <path d="M54.1138463,61.8713829 C56.1085602,60.2929937 56.3652042,58.2558608 56.4477399,56.2791361 L56.4477399,2.11448734 C56.4435228,0.459541139 55.2133187,-0.318588608 53.7005652,0.376405063 L2.83084236,23.753193 C1.28615904,24.4780918 0.0348691696,26.0959557 0.0348691696,28.0535411 C0.0348691696,30.7970316 1.84342584,32.5644209 3.0338682,33.4328639 L17.802342,42.7746076 C19.2084616,43.6639842 21.0796732,43.2566772 21.9821441,41.8654937 L25.251041,36.8258924 C26.153512,35.4341108 25.745653,33.5853797 24.3395333,32.6960032 L21.7417664,31.0524209 C20.3356467,30.1630443 20.4223996,28.8789209 21.935153,28.1833291 L41.6768564,19.1113291 C43.1902122,18.4157373 44.4204163,19.1938671 44.4246335,20.8488133 L44.4246335,42.44625 C44.4294531,44.1011962 43.3522714,44.7220253 41.9461518,43.8326487 L39.1055972,42.0359525 C37.6994776,41.1465759 35.8276636,41.5538829 34.9251926,42.9450665 L31.6568982,47.9846677 C30.7538247,49.3764494 31.1622862,51.2251804 32.5684059,52.114557 L48.5279245,62.2093101 C49.4448543,62.5944873 52.0872025,63.4742943 54.1138463,61.8713829" id="Fill-6"/>
                </g>
                <g id="iso" transform="translate(76.853181, 14.955696)" fill="#F1F7FF" sketch:type="MSShapeGroup">
                    <path d="M16.0239808,25.8152468 C19.2290179,25.8152468 21.1520402,24.5424873 21.7924452,22.6333481 L22.4334526,21.9975665 L30.1249393,21.9975665 L30.7659467,22.6333481 C29.4839318,30.269307 23.07446,33.4512057 16.0239808,33.4512057 C6.41007427,33.4512057 0,27.0874082 0,16.9065285 C0,6.72505063 6.41007427,0.361851266 16.0239808,0.361851266 C23.07446,0.361851266 29.4839318,3.54375 30.7659467,11.1797089 L30.1249393,11.8160886 L22.4334526,11.8160886 L21.7924452,11.1797089 C21.1520402,9.27056962 19.2290179,7.99840823 16.0239808,7.99840823 C11.5375312,7.99840823 8.97350153,11.1797089 8.97350153,16.9065285 C8.97350153,22.6333481 11.5375312,25.8152468 16.0239808,25.8152468" id="Fill-1"/>
                    <path d="M59.4370209,8.63418987 L54.9505713,8.63418987 C49.8231143,8.63418987 47.9000921,11.1797089 47.9000921,16.9065285 L47.9000921,32.1784462 L47.2590846,32.8148259 L39.567598,32.8148259 L38.9265905,32.1784462 L38.9265905,1.63461076 L39.567598,0.998829114 L46.6180772,0.998829114 L47.2590846,1.63461076 L47.9000921,3.54375 L48.5410995,3.54375 C48.5410995,3.54375 49.8231143,0.998829114 55.5915787,0.998829114 L59.4370209,0.998829114 L60.0780283,1.63461076 L60.0780283,7.99840823 L59.4370209,8.63418987" id="Fill-2"/>
                    <path d="M96.5799761,19.4520475 L95.9389686,20.0884272 L76.0695457,20.0884272 L75.4285383,20.7242089 C75.4285383,21.9975665 76.7105532,25.8152468 81.8380101,25.8152468 C83.7610324,25.8152468 85.6840547,25.1788671 86.3244597,23.9061076 L86.9660696,23.2697278 L94.6569538,23.2697278 L95.2979612,23.9061076 C94.6569538,27.723788 91.4525191,33.4512057 81.8380101,33.4512057 C70.9420888,33.4512057 65.8140294,25.8152468 65.8140294,16.9065285 C65.8140294,7.99840823 70.9420888,0.361851266 81.1970027,0.361851266 C91.4525191,0.361851266 96.5799761,7.99840823 96.5799761,16.9065285 L96.5799761,19.4520475 L96.5799761,19.4520475 Z M86.9660696,13.0888481 C86.9660696,12.4524684 86.3244597,7.99840823 81.1970027,7.99840823 C76.0695457,7.99840823 75.4285383,12.4524684 75.4285383,13.0888481 L76.0695457,13.7246297 L86.3244597,13.7246297 L86.9660696,13.0888481 L86.9660696,13.0888481 Z" id="Fill-3"/>
                    <path d="M131.098217,32.8148259 L104.178315,32.8148259 L103.536705,32.1784462 L103.536705,25.1788671 L104.178315,23.9061076 L118.920281,9.27056962 L118.920281,8.63418987 L104.81872,8.63418987 L104.178315,7.99840823 L104.178315,1.63461076 L104.81872,0.998829114 L130.457209,0.998829114 L131.098217,1.63461076 L131.098217,8.63418987 L130.457209,9.90694937 L115.715243,24.5424873 L115.715243,25.1788671 L131.098217,25.1788671 L131.738622,25.8152468 L131.738622,32.1784462 L131.098217,32.8148259" id="Fill-4"/>
                    <path d="M168.133638,19.4520475 L167.492028,20.0884272 L147.623208,20.0884272 L146.981598,20.7242089 C146.981598,21.9975665 148.264215,25.8152468 153.39107,25.8152468 C155.314694,25.8152468 157.237114,25.1788671 157.878122,23.9061076 L158.519129,23.2697278 L166.210616,23.2697278 L166.851623,23.9061076 C166.210616,27.723788 163.005579,33.4512057 153.39107,33.4512057 C142.495148,33.4512057 137.367691,25.8152468 137.367691,16.9065285 C137.367691,7.99840823 142.495148,0.361851266 152.750665,0.361851266 C163.005579,0.361851266 168.133638,7.99840823 168.133638,16.9065285 L168.133638,19.4520475 L168.133638,19.4520475 Z M158.519129,13.0888481 C158.519129,12.4524684 157.878122,7.99840823 152.750665,7.99840823 C147.623208,7.99840823 146.981598,12.4524684 146.981598,13.0888481 L147.623208,13.7246297 L157.878122,13.7246297 L158.519129,13.0888481 L158.519129,13.0888481 Z" id="Fill-5"/>
                </g>
            </g>
        </g>
    </g>
</svg>